<?xml version="1.0" encoding="UTF-8" standalone="no"?>
<svg
   xmlns:dc="http://purl.org/dc/elements/1.1/"
   xmlns:cc="http://creativecommons.org/ns#"
   xmlns:rdf="http://www.w3.org/1999/02/22-rdf-syntax-ns#"
   xmlns:svg="http://www.w3.org/2000/svg"
   xmlns="http://www.w3.org/2000/svg"
   xmlns:sodipodi="http://sodipodi.sourceforge.net/DTD/sodipodi-0.dtd"
   xmlns:inkscape="http://www.inkscape.org/namespaces/inkscape"
   width="208.05685mm"
   height="31.552074mm"
   viewBox="0 0 208.05685 31.552072"
   version="1.1"
   id="svg1569"
   sodipodi:docname="clouds.svg"
   inkscape:version="1.0.1 (3bc2e813f5, 2020-09-07)">
  <defs
     id="defs1563" />
  <sodipodi:namedview
     id="base"
     pagecolor="#ffffff"
     bordercolor="#666666"
     borderopacity="1.0"
     inkscape:pageopacity="0.0"
     inkscape:pageshadow="2"
     inkscape:zoom="0.7"
     inkscape:cx="172.01967"
     inkscape:cy="236.82972"
     inkscape:document-units="mm"
     inkscape:current-layer="layer1"
     inkscape:document-rotation="0"
     showgrid="false"
     inkscape:window-width="1267"
     inkscape:window-height="1040"
     inkscape:window-x="1972"
     inkscape:window-y="0"
     inkscape:window-maximized="0" />
  <metadata
     id="metadata1566">
    <rdf:RDF>
      <cc:Work
         rdf:about="">
        <dc:format>image/svg+xml</dc:format>
        <dc:type
           rdf:resource="http://purl.org/dc/dcmitype/StillImage" />
      </cc:Work>
    </rdf:RDF>
  </metadata>
  <g
     inkscape:label="Layer 1"
     inkscape:groupmode="layer"
     id="layer1"
     transform="translate(21.885869,-11.138436)">
    <path
       d="m 102.98449,13.25854 c 1.18216,-0.293635 2.52036,-0.15472 3.53713,0.553736 -1.13073,0.454739 -2.58001,-0.01364 -3.46371,0.982567 1.01399,0.07129 2.02955,0.09401 3.04819,0.134692 -0.50946,0.625468 -1.15981,1.102693 -1.86039,1.487461 -0.89509,0.495469 -1.59017,1.258906 -2.20655,2.061711 -2.231257,-0.03253 -4.461587,-0.244171 -6.656307,-0.656456 -0.0904,0.247202 -0.18045,0.492221 -0.26435,0.74216 -1.0596,0.0025 -2.12814,-0.161537 -3.17798,-0.0034 -0.68159,0.536676 -0.43418,1.520533 -0.44269,2.271867 -0.78019,0.04895 -1.56328,0.02245 -2.33969,0.05179 -0.922,0.02447 -1.67252,0.761394 -2.60887,0.687407 -1.81804,-0.08394 -3.62239,-0.536161 -5.447737,-0.359678 0.0111,-0.476858 0.0265,-0.951172 0.0418,-1.425467 -1.18797,0.339622 -2.39697,0.777138 -3.65469,0.598135 -1.83261,-0.235497 -3.68242,-0.169334 -5.52508,-0.250784 -0.67635,-0.03354 -1.33449,0.122355 -1.9855,0.272199 -0.98979,0.238078 -2.04046,0.01572 -3.00435,0.375251 -1.28941,0.475379 -2.66058,0.67005 -4.02403,0.768008 -1.39131,0.113458 -2.7637,-0.685044 -4.1383,-0.220829 -1.42713,0.510943 -2.95402,0.242117 -4.42029,0.09972 -1.03034,-0.08803 -1.97957,-0.558962 -3.00405,-0.666453 -1.08784,-0.0041 -1.86285,0.903369 -2.84816,1.223626 -0.79375,0.05228 -1.56055,-0.236106 -2.34365,-0.31789 -1.10866,-0.160588 -2.20733,0.168414 -3.31648,0.153761 -2.29359,1.24e-4 -4.61459,-0.716291 -6.88923,-0.144044 -1.914429,0.40829 -3.773087,1.424816 -5.781016,1.087007 -1.353394,-0.226374 -2.710845,-0.48404 -4.088443,-0.378334 0.479101,0.23471 0.963467,0.458768 1.44968,0.687378 -1.526586,-0.133896 -3.055147,-0.325456 -4.588036,-0.269639 -0.64767,-0.0047 -1.323922,0.07234 -1.938148,-0.159765 -0.25881,-0.447306 -0.391351,-0.953216 -0.652895,-1.394103 -0.968548,-0.282222 -1.992763,-0.139755 -2.984996,-0.151811 -0.07407,-0.406167 -0.146093,-0.80997 -0.215936,-1.213601 -1.394304,-0.240674 -2.807134,-0.330175 -4.215516,-0.419351 -3.962488,-0.31972 -7.929346,-0.611066 -11.889585,-0.959368 -0.90593405,-0.151211 -1.57325205,0.680751 -2.450561,0.671146 -0.874477,0.01053 -1.750833,-0.03881 -2.615072,0.09415 -0.932662,0.103253 -1.980915,0.241588 -2.810792,-0.28402 -0.249897,-0.336032 -0.345443,-0.750532 -0.496667,-1.131849 1.609053,-0.573988 3.330227,-0.384906 5.001102,-0.396626 1.83583195,0.05437 3.762795,-0.09195 5.462272,0.736826 0.146361,-0.536954 0.29678,-1.069155 0.443016,-1.603889 1.220801,0.05665 2.472928,0.193294 3.659746,-0.188557 0.926494,-0.304998 1.861947,0.116148 2.795326,0.116916 0.74757,-0.139987 1.367753,-0.654974 2.119872,-0.796804 0.628259,-0.169319 1.328263,-0.127279 1.912833,-0.443822 0.289668,-0.726888 0.350009,-1.518344 0.494296,-2.281059 1.060013,0.04838 2.121893,0.101307 3.182473,0.171838 0.111109,-0.39817 0.226567,-0.796023 0.34186,-1.191661 0.06459,0.330229 0.131237,0.662822 0.197824,0.995438 0.262413,0.0097 0.527038,0.01953 0.793858,0.02955 -0.05814,-0.272205 -0.114033,-0.544259 -0.169929,-0.816286 0.619186,0.365212 1.261105,0.77864 2.009403,0.769213 1.194672,0.02362 2.393749,-0.03645 3.582673,0.115006 2.194938,0.26853 4.40705,0.208887 6.612592,0.259294 0.994619,0.03658 1.947179,-0.290701 2.843331,-0.688786 1.352276,-0.627454 2.868095,-0.273219 4.299725,-0.310503 1.66917,-0.04726 3.4039,0.335319 5.00975,-0.280941 1.25147,-0.442998 2.56561,-0.699663 3.89196,-0.776214 0.73809,-0.04784 1.37332,0.393828 2.0131,0.694315 0.63152,-0.434469 1.40019,-0.477693 2.14075,-0.416947 1.87226,0.12583 3.73609,-0.341768 5.60965,-0.12074 1.3919,0.158633 2.79293,0.174241 4.19206,0.158723 1.77294,-0.01695 3.61909,0.577915 5.32662,-0.149739 0.88024,0.476504 1.71011,1.170217 2.755,1.215172 1.73492,0.128258 3.46953,0.287419 5.20863,0.278861 1.58219,-0.0099 3.1202,0.425696 4.69838,0.468569 0.72905,0.06643 1.53788,-0.009 2.17109,0.430324 0.58327,0.399955 1.18347,0.865398 1.931587,0.85816 1.12722,0.177533 2.02662,-0.764361 3.1336,-0.721136 1.41132,0.02526 2.80193,0.312089 4.21325,0.36389 1.10644,0.105132 1.99771,-0.846267 3.11262,-0.680778 1.88954,0.186911 3.82423,0.165039 5.65804,0.721322 1.024167,0.306521 2.093347,0.406477 3.157827,0.426465 0.12805,-0.500819 0.003,-1.218432 0.46695,-1.542308 z"
       fill="#eea392"
       stroke="#eea392"
       id="path2"
       style="fill:#ecaf9a;fill-opacity:1;stroke-width:0.264583" />
    <path
       d="m 182.23611,32.085768 c 1.28512,-0.477405 2.51347,0.550809 3.80899,0.384499 -0.0455,1.120724 -0.18767,2.232167 -0.41175,3.321862 -0.78043,0.335945 -1.51705,0.918439 -2.35528,0.989186 -1.14472,-0.23823 -2.38277,-0.827508 -2.88487,-2.200898 -0.2449,0.364418 -0.48799,0.729222 -0.72959,1.096565 -2.43169,-0.284999 -4.79397,-1.177551 -7.24352,-1.276062 -0.50223,-0.04155 -0.9906,-0.192104 -1.48749,-0.270588 -0.57836,-0.115914 -0.93803,0.582314 -1.32412,0.977235 1.387,0.08367 2.7767,-0.145491 4.16313,0.03204 -0.0587,0.40612 -0.15905,0.819106 -0.11219,1.236441 0.6084,0.63711 1.45106,0.791138 2.18097,1.149572 -0.87342,0.365467 -1.91772,0.417152 -2.54025,1.348395 0.30589,0.134231 0.61777,0.26528 0.92934,0.398488 0.0447,0.253449 0.0894,0.506923 0.13765,0.761137 -1.44795,0.478688 -2.9489,0.608152 -4.43903,0.739884 -1.4334,0.09678 -2.84072,0.588541 -4.28515,0.45467 -1.08666,-0.102803 -2.13503,0.283782 -3.19149,0.509712 -1.08559,0.273478 -2.2454,-0.449192 -3.26009,0.293716 -0.3161,-0.12745 -0.63009,-0.256688 -0.94409,-0.385953 -0.35129,0.256793 -0.69593,0.544116 -1.08671,0.703013 -0.35197,-0.04554 -0.43556,-0.566895 -0.63181,-0.845762 -1.39423,-0.519427 -2.8607,-0.577424 -4.30662,-0.521357 -2.12276,0.147596 -4.15445,-0.909885 -6.27126,-0.841614 -0.28249,0.125901 -0.5045,0.383245 -0.74091,0.599501 -0.64651,-0.667568 -1.34794,-1.261711 -1.9238,-2.021742 1.31955,-0.165668 2.63171,-0.48512 3.96501,-0.426301 1.10119,0.07902 2.05826,-0.749976 3.14676,-0.787806 1.64074,-0.08639 3.27575,-0.29934 4.91167,-0.48077 0.64429,-0.07157 1.27706,-0.255257 1.89402,-0.496043 -1.78081,-0.133579 -3.56066,0.01956 -5.33516,0.200703 -1.52818,0.03639 -3.02487,0.455488 -4.54728,0.580402 -1.64594,0.147959 -3.25911,0.59385 -4.90204,0.771565 -2.04942,0.151945 -4.08179,0.824598 -6.14209,0.501943 -0.92426,-0.126582 -1.75817,0.502444 -2.66114,0.599754 -1.69124,0.205508 -3.28425,1.03621 -4.98831,1.13827 -1.63217,0.103873 -3.20701,0.66759 -4.82342,0.918052 -0.99777,0.164507 -1.97985,0.489021 -2.99156,0.531932 -0.66856,0.03511 -1.34142,-0.0024 -2.00346,0.128109 -0.77561,0.148947 -1.51415,0.489285 -2.28308,0.668738 -0.87942,-0.258082 -1.73678,-0.630115 -2.52899,-1.158464 1.21549,0.132341 2.42801,0.387183 3.65471,0.327158 -0.24988,-0.585704 -0.48983,-1.17605 -0.71956,-1.773139 -1.43654,-0.45679 -2.916,-0.642844 -4.37436,-0.961003 -0.50075,-0.0905 -0.94831,-0.382364 -1.34846,-0.746978 1.14916,-0.418937 2.38426,-0.371962 3.50328,-0.940535 -0.25806,-0.388242 -0.46886,-0.911942 -0.90747,-1.022849 -0.86445,-0.259375 -1.73913,-0.460474 -2.60661,-0.698142 -0.84518,-0.315724 -1.44378,0.884713 -2.27425,0.735531 -1.01959,-0.196026 -2.01438,-0.563613 -2.97415,-1.020043 0.89657,0.06249 1.76785,0.325572 2.63312,0.605263 0.0904,-0.643365 0.21304,-1.385164 0.75189,-1.698433 0.69066,-0.558664 1.51871,-0.0988 2.27182,-0.207774 0.33082,-0.28128 0.57209,-0.684528 0.83848,-1.044391 0.83212,0.124933 1.66101,0.374532 2.50341,0.313641 0.22585,-0.386371 0.34746,-0.844081 0.47944,-1.283902 -1.65565,-0.500985 -3.37045,-0.51536 -5.04705,-0.859649 -1.31268,-0.278304 -2.69557,-0.300657 -3.8968,-1.081349 0.92588,-0.421496 1.87517,0.08194 2.8176,0.05793 0.25892,-0.269664 0.44803,-0.619049 0.65733,-0.941777 0.90934,0.0764 1.85706,0.41164 2.74077,-0.01208 0.60751,-0.3032 1.26829,-0.245943 1.9035,-0.126907 0.0722,0.165276 0.14591,0.333117 0.22112,0.503508 0.25794,-0.173627 0.51284,-0.376989 0.80286,-0.46549 0.80853,0.160219 1.55409,0.692106 2.39258,0.670652 1.14686,0.0059 2.25005,0.403176 3.38226,0.562637 1.48872,0.0448 2.93181,-0.502079 4.37134,-0.897512 1.05065,-0.325663 2.09825,0.379935 3.15218,0.09529 1.22952,-0.310113 2.4249,-0.83115 3.68391,-0.962676 1.33302,-0.16953 2.63182,0.331898 3.9502,0.481594 0.91095,0.103606 1.81728,0.277847 2.73028,0.379632 0.75288,0.110379 1.40916,-0.453338 2.13543,-0.567964 0.6419,-0.02955 1.26366,0.220909 1.89213,0.360863 1.15176,0.304624 2.34882,0.180142 3.50236,0.485144 0.903,0.222796 1.78296,0.707055 2.7247,0.597814 0.93391,-0.106406 1.8707,-0.104792 2.80762,-0.04046 1.24357,0.09129 2.43825,-0.476903 3.68138,-0.432711 1.10787,0.02 2.23005,-0.263638 3.32566,0.0582 1.09046,0.29386 2.16275,0.675649 3.24357,1.023441 0.12912,0.385507 0.25998,0.771413 0.39447,1.158058 0.71228,-0.171314 1.43649,-0.335613 2.16658,-0.259177 1.16383,0.06767 2.31312,0.479218 3.4848,0.313545 0.9572,-0.139533 1.85967,0.380844 2.80412,0.45798 0.895,0.07341 1.78988,0.211602 2.65388,0.524598 0.0873,0.419183 0.17814,0.8391 0.27078,1.259425 0.78071,-0.465703 1.60826,-0.820753 2.48191,-0.906363 1.20853,-0.126534 2.28184,-0.980123 3.50643,-0.986872 0.89155,0.0077 1.75259,0.329055 2.6128,0.578582 -0.25039,-0.312723 -0.49943,-0.622929 -0.74276,-0.93418 z"
       fill="#f1af9e"
       stroke="#f1af9e"
       id="path6"
       style="fill:#ecaf9a;fill-opacity:0.763052;stroke-width:0.240418"
       inkscape:transform-center-x="-3.3093021"
       inkscape:transform-center-y="-2.1805359" />
    <path
       d="m 49.516955,35.700593 c 1.20542,0.248077 2.429631,0.444168 3.615891,0.778438 0.512868,0.122268 0.66221,0.711884 0.786,1.152771 0.188839,0.687322 -0.423352,1.244233 -0.932931,1.593825 -0.858359,0.562607 -1.910789,0.148424 -2.849229,0.135843 -1.180431,-0.122358 -2.33911,0.451678 -3.512151,0.219329 -0.73619,-0.466982 -0.700659,-1.497437 -0.92056,-2.255002 -1.61472,-0.147647 -3.22545,0.124168 -4.838001,0.185146 -1.839418,0.138273 -3.680629,0.191448 -5.518989,0.334566 -1.614511,0.126749 -3.216039,-0.202463 -4.827399,-0.186865 -1.079241,-0.0077 -2.19061,0.151755 -3.237201,-0.192269 -1.86726,-0.619242 -3.754599,-1.182234 -5.575599,-1.928243 -0.61894,-0.210796 -1.269262,-0.5239 -1.93851,-0.401 -1.338471,0.529341 -2.097402,1.830209 -3.111301,2.768555 -1.302589,0.90723 -2.95992,0.965099 -4.478981,1.177459 -1.64374,0.166748 -3.2108485,0.75457 -4.8589095,0.878984 -1.6706,0.147947 -3.39865,0.163578 -4.9684801,0.828378 -1.434869,0.605796 -2.9455801,1.254811 -4.5420722,1.057289 -1.4739057,-0.17764 -2.9546741,-0.213131 -4.4381281,-0.180773 -2.1005931,-0.0682 -4.3539841,0.262937 -6.2734651,-0.816395 -0.442379,-0.212691 -0.903907,-0.881007 -0.495117,-1.313093 0.410055,-0.536896 0.954743,-0.947728 1.476634,-1.36706 -1.329612,0.08824 -2.524684,-0.522784 -3.74508,-0.932715 -1.304377,-0.437533 -2.647591,0.01734 -3.959309,0.140197 -0.75719,0.08511 -1.442618,-0.308515 -2.112898,-0.590544 -0.130422,-1.167404 0.626272,-2.251689 1.646234,-2.744873 0.66064,-0.04984 1.299855,0.187081 1.937048,0.322878 0.666942,-0.448189 1.329997,-1.315812 2.226722,-1.042602 1.491959,0.44549 2.842501,1.282029 4.368125,1.629312 1.525819,0.413638 3.102333,-0.02532 4.5469071,-0.532411 0.838877,-0.316484 1.638061,-0.721569 2.444363,-1.110985 1.2691554,-0.610064 2.3447631,-1.556654 3.6467523,-2.102742 1.3797209,-0.579761 2.782044,-1.308767 4.3307741,-1.179205 0.19823,0.603012 0.31322,1.26779 0.71249,1.7796 0.539401,0.559352 1.300999,0.825237 2.023729,1.057618 2.189681,0.602331 4.4750615,1.013921 6.7488315,0.850667 1.46536,-0.867201 2.60255,-2.338737 4.31565,-2.783587 1.37029,-0.303421 2.78982,-0.2527 4.18456,-0.261363 1.2656,0.0451 2.678181,0.0962 3.69339,0.955149 0.167601,0.7981 -0.764169,1.178258 -1.21712,1.67138 1.67455,0.388102 3.35562,0.84427 5.083201,0.897121 2.200389,0.05441 4.37982,-0.290148 6.56658,-0.461257 1.081919,-0.110395 2.04651,0.474032 3.073858,0.696184 2.23294,0.461122 4.507362,0.69584 6.784851,0.794258 0.30403,0.275366 0.56489,0.758376 1.04749,0.657459 1.028661,-0.07474 2.057451,-0.391759 3.092061,-0.179052 z"
       fill="#f3aca6"
       stroke="#f3aca6"
       id="path4-4"
       style="fill:#ecaf9a;fill-opacity:0.827309;stroke-width:0.264583" />
  </g>
</svg>
