<?xml version="1.0" encoding="UTF-8" standalone="no"?>
<svg
   xmlns:dc="http://purl.org/dc/elements/1.1/"
   xmlns:cc="http://creativecommons.org/ns#"
   xmlns:rdf="http://www.w3.org/1999/02/22-rdf-syntax-ns#"
   xmlns:svg="http://www.w3.org/2000/svg"
   xmlns="http://www.w3.org/2000/svg"
   xmlns:sodipodi="http://sodipodi.sourceforge.net/DTD/sodipodi-0.dtd"
   xmlns:inkscape="http://www.inkscape.org/namespaces/inkscape"
   width="168.44334mm"
   height="26.205441mm"
   viewBox="0 0 168.44334 26.205441"
   version="1.1"
   id="svg842"
   inkscape:version="1.0.1 (3bc2e813f5, 2020-09-07)"
   sodipodi:docname="clouds_small.svg">
  <defs
     id="defs836" />
  <sodipodi:namedview
     id="base"
     pagecolor="#ffffff"
     bordercolor="#666666"
     borderopacity="1.0"
     inkscape:pageopacity="0.0"
     inkscape:pageshadow="2"
     inkscape:zoom="0.35"
     inkscape:cx="186.88956"
     inkscape:cy="175.23638"
     inkscape:document-units="mm"
     inkscape:current-layer="layer1"
     inkscape:document-rotation="0"
     showgrid="false"
     inkscape:window-width="1267"
     inkscape:window-height="1040"
     inkscape:window-x="2628"
     inkscape:window-y="17"
     inkscape:window-maximized="0" />
  <metadata
     id="metadata839">
    <rdf:RDF>
      <cc:Work
         rdf:about="">
        <dc:format>image/svg+xml</dc:format>
        <dc:type
           rdf:resource="http://purl.org/dc/dcmitype/StillImage" />
        <dc:title></dc:title>
      </cc:Work>
    </rdf:RDF>
  </metadata>
  <g
     inkscape:label="Layer 1"
     inkscape:groupmode="layer"
     id="layer1"
     transform="translate(-56.385471,-101.80204)">
    <path
       d="m 192.22446,121.1896 c 1.20542,0.24808 2.42963,0.44417 3.61589,0.77844 0.51287,0.12227 0.66221,0.71188 0.786,1.15277 0.18884,0.68732 -0.42335,1.24423 -0.93293,1.59383 -0.85836,0.5626 -1.91079,0.14842 -2.84923,0.13584 -1.18043,-0.12236 -2.33911,0.45168 -3.51215,0.21933 -0.73619,-0.46698 -0.70066,-1.49744 -0.92056,-2.255 -1.61472,-0.14765 -3.22545,0.12416 -4.838,0.18514 -1.83942,0.13828 -3.68063,0.19145 -5.51899,0.33457 -1.61451,0.12675 -3.21604,-0.20246 -4.8274,-0.18687 -1.07924,-0.008 -2.19061,0.15176 -3.2372,-0.19227 -1.86726,-0.61924 -3.7546,-1.18223 -5.5756,-1.92824 -0.61894,-0.21079 -1.26926,-0.5239 -1.93851,-0.401 -1.33847,0.52934 -2.0974,1.83021 -3.1113,2.76856 -1.30259,0.90723 -2.95992,0.9651 -4.47898,1.17746 -1.64374,0.16674 -3.21085,0.75457 -4.85891,0.87898 -1.6706,0.14795 -3.39865,0.16358 -4.96848,0.82838 -1.43487,0.60579 -2.94558,1.25481 -4.54207,1.05729 -1.47391,-0.17764 -2.95467,-0.21313 -4.43813,-0.18078 -2.10059,-0.0682 -4.35398,0.26294 -6.27346,-0.81639 -0.44238,-0.21269 -0.90391,-0.88101 -0.49512,-1.31309 0.41006,-0.5369 0.95474,-0.94773 1.47663,-1.36706 -1.32961,0.0882 -2.52468,-0.52279 -3.74508,-0.93272 -1.30437,-0.43753 -2.64759,0.0173 -3.95931,0.1402 -0.75719,0.0851 -1.44261,-0.30852 -2.11289,-0.59055 -0.13043,-1.1674 0.62627,-2.25169 1.64623,-2.74487 0.66064,-0.0498 1.29986,0.18708 1.93705,0.32288 0.66694,-0.44819 1.33,-1.31581 2.22672,-1.0426 1.49196,0.44549 2.8425,1.28203 4.36812,1.62931 1.52583,0.41364 3.10234,-0.0253 4.54691,-0.53241 0.83888,-0.31649 1.63806,-0.72157 2.44437,-1.11099 1.26915,-0.61006 2.34476,-1.55665 3.64675,-2.10274 1.37972,-0.57976 2.78204,-1.30877 4.33077,-1.1792 0.19823,0.60301 0.31322,1.26779 0.71249,1.7796 0.5394,0.55935 1.301,0.82523 2.02373,1.05761 2.18968,0.60233 4.47506,1.01392 6.74883,0.85067 1.46536,-0.8672 2.60255,-2.33874 4.31565,-2.78359 1.37029,-0.30342 2.78982,-0.2527 4.18456,-0.26136 1.2656,0.0451 2.67818,0.0962 3.69339,0.95515 0.1676,0.7981 -0.76417,1.17826 -1.21712,1.67138 1.67455,0.3881 3.35562,0.84427 5.0832,0.89712 2.20039,0.0544 4.37982,-0.29015 6.56658,-0.46126 1.08192,-0.11039 2.04651,0.47404 3.07386,0.69619 2.23294,0.46112 4.50736,0.69584 6.78485,0.79426 0.30403,0.27536 0.56489,0.75837 1.04749,0.65745 1.02866,-0.0747 2.05745,-0.39175 3.09206,-0.17905 z"
       fill="#f3aca6"
       stroke="#f3aca6"
       id="path4"
       style="fill:#ecaf9a;fill-opacity:1;stroke-width:0.264583" />
    <path
       d="m 221.94835,124.71635 c 0.88349,-0.17568 2.0998,-0.47881 2.67187,0.45163 -0.85715,0.20235 -1.70943,0.47082 -2.42807,1.0002 -0.74318,0.55638 -1.68176,0.66416 -2.56603,0.83497 -1.00605,0.18378 -2.03317,0.59881 -3.06184,0.29067 -1.11257,-0.2834 -2.24128,-0.57411 -3.40065,-0.55113 -1.2718,-0.0235 -2.52744,0.36903 -3.79921,0.21162 -0.79565,-0.0995 -1.37698,-0.73268 -2.12837,-0.95232 -0.70902,-0.12566 -1.43478,-0.11569 -2.15197,-0.1631 -1.03593,-0.0841 -2.0242,0.28758 -3.01597,0.52198 1.22539,0.61861 2.60724,0.42926 3.92567,0.44415 0.76811,-0.0199 1.29562,0.60812 1.82052,1.07368 -1.28029,-0.30089 -2.57074,-0.69497 -3.9034,-0.58268 -1.63355,0.12268 -3.27944,0.18845 -4.91565,0.0748 -1.2068,-0.0841 -2.33663,-0.56452 -3.52769,-0.73607 -1.36498,-0.21408 -2.75621,-0.17308 -4.11817,-0.41855 -1.56673,-0.29293 -3.1409,0.0699 -4.71226,0.0364 0.23251,-0.19096 0.46581,-0.37707 0.70122,-0.5625 -0.0396,-0.2663 -0.0792,-0.53256 -0.11807,-0.79399 0.65697,-0.27148 1.73732,-0.70921 2.11176,0.17368 2.31662,0.0642 4.61502,-0.25132 6.92482,-0.35087 2.11363,-0.2113 4.24188,-0.11332 6.35559,-0.3246 1.63517,-0.17989 3.24417,0.30393 4.88059,0.25374 1.48343,-0.0631 2.91971,0.42708 4.40152,0.39114 1.6569,-0.005 3.26476,0.45349 4.91127,0.56342 1.7577,0.0798 3.46658,-0.41889 5.1426,-0.88626 z"
       fill="#f3beb1"
       stroke="#f3beb1"
       id="path16"
       style="stroke-width:0.264583" />
    <path
       d="m 127.7883,107.62338 c 1.20542,0.24808 2.42963,0.44417 3.61589,0.77844 0.51286,0.12227 0.66221,0.71188 0.786,1.15277 0.18884,0.68732 -0.42336,1.24423 -0.93293,1.59383 -0.85836,0.5626 -1.91079,0.14842 -2.84923,0.13584 -1.18043,-0.12236 -2.33911,0.45168 -3.51215,0.21933 -0.73619,-0.46698 -0.70066,-1.49744 -0.92056,-2.255 -1.61472,-0.14765 -3.22545,0.12416 -4.83801,0.18514 -1.83941,0.13828 -3.68062,0.19145 -5.51898,0.33457 -1.61452,0.12675 -3.21604,-0.20246 -4.8274,-0.18687 -1.07924,-0.008 -2.19061,0.15176 -3.2372,-0.19227 -1.86726,-0.61924 -3.7546,-1.18223 -5.575604,-1.92824 -0.61894,-0.21079 -1.269262,-0.5239 -1.93851,-0.401 -1.338471,0.52934 -2.097402,1.83021 -3.111301,2.76856 -1.302589,0.90723 -2.959921,0.9651 -4.478981,1.17746 -1.64374,0.16674 -3.210848,0.75457 -4.858909,0.87898 -1.6706,0.14795 -3.398651,0.16358 -4.968481,0.82838 -1.434869,0.60579 -2.94558,1.25481 -4.542072,1.05729 -1.473906,-0.17764 -2.954674,-0.21313 -4.438128,-0.18078 -2.100593,-0.0682 -4.353984,0.26294 -6.273465,-0.81639 -0.442379,-0.21269 -0.903907,-0.88101 -0.495117,-1.31309 0.410055,-0.5369 0.954743,-0.94773 1.476634,-1.36706 -1.329612,0.0882 -2.524684,-0.52279 -3.74508,-0.93272 -1.304377,-0.43753 -2.647591,0.0173 -3.959309,0.1402 -0.75719,0.0851 -1.442618,-0.30852 -2.112898,-0.59055 -0.130422,-1.1674 0.626272,-2.25169 1.646234,-2.74487 0.66064,-0.0498 1.299855,0.18708 1.937048,0.32288 0.666942,-0.44819 1.329997,-1.31581 2.226722,-1.0426 1.491959,0.44549 2.842501,1.28203 4.368125,1.62931 1.525819,0.41364 3.102333,-0.0253 4.546907,-0.53241 0.838877,-0.31649 1.638061,-0.72157 2.444363,-1.11099 1.269155,-0.61006 2.344763,-1.55665 3.646752,-2.10274 1.379721,-0.57976 2.782044,-1.30877 4.330774,-1.1792 0.19823,0.60301 0.31322,1.26779 0.71249,1.7796 0.539402,0.55935 1.301,0.82523 2.02373,1.05761 2.189681,0.60233 4.475062,1.01392 6.74883,0.85067 1.465361,-0.8672 2.602551,-2.33874 4.315651,-2.78359 1.37029,-0.30342 2.78982,-0.2527 4.18456,-0.26136 1.265605,0.0451 2.678185,0.0962 3.693395,0.95515 0.1676,0.7981 -0.76417,1.17826 -1.21712,1.67138 1.67455,0.3881 3.35562,0.84427 5.0832,0.89712 2.20039,0.0544 4.37982,-0.29015 6.56658,-0.46126 1.08192,-0.11039 2.04651,0.47404 3.07385,0.69619 2.23294,0.46112 4.50737,0.69584 6.78486,0.79426 0.30403,0.27536 0.56489,0.75837 1.04749,0.65745 1.02866,-0.0747 2.05745,-0.39175 3.09206,-0.17905 z"
       fill="#f3aca6"
       stroke="#f3aca6"
       id="path4-4"
       style="fill:#ecaf9a;fill-opacity:0.81927711;stroke-width:0.264583" />
  </g>
</svg>
